<?xml version="1.0" encoding="iso-8859-1"?>
<!-- Generator: Adobe Illustrator 18.1.1, SVG Export Plug-In . SVG Version: 6.00 Build 0)  -->
<svg version="1.1" id="Capa_1" xmlns="http://www.w3.org/2000/svg" xmlns:xlink="http://www.w3.org/1999/xlink" x="0px" y="0px"
	 viewBox="0 0 458.976 458.976" style="enable-background:new 0 0 458.976 458.976;" xml:space="preserve">
<g>
	<path d="M352.698,458.976h-246.42c-48.082,0-87.199-39.116-87.199-87.195v-246.42c0-48.079,39.116-87.195,87.199-87.195
		c8.085,0,14.638,6.553,14.638,14.638s-6.553,14.638-14.638,14.638c-31.941,0-57.923,25.982-57.923,57.919v246.42
		c0,31.937,25.982,57.919,57.923,57.919h246.42c31.941,0,57.923-25.982,57.923-57.919v-246.42c0-31.937-25.982-57.919-57.923-57.919
		c-8.085,0-14.638-6.553-14.638-14.638s6.553-14.638,14.638-14.638c48.082,0,87.199,39.116,87.199,87.195v246.42
		C439.897,419.859,400.78,458.976,352.698,458.976z"/>
	<path d="M274.794,67.441h-91.486c-8.085,0-14.638-6.553-14.638-14.638s6.553-14.638,14.638-14.638h91.486
		c8.085,0,14.638,6.553,14.638,14.638S282.879,67.441,274.794,67.441z"/>
	<path d="M417.041,170.117H37.83c-8.085,0-14.638-6.553-14.638-14.638c0-8.085,6.553-14.638,14.638-14.638h379.211
		c8.085,0,14.638,6.553,14.638,14.638C431.679,163.564,425.126,170.117,417.041,170.117z"/>
	<path d="M341.599,280.085H117.377c-8.085,0-14.638-6.553-14.638-14.638s6.553-14.638,14.638-14.638h224.222
		c8.085,0,14.638,6.553,14.638,14.638S349.684,280.085,341.599,280.085z"/>
	<path d="M278.619,348.537h-95.528c-8.085,0-14.638-6.553-14.638-14.638c0-8.085,6.553-14.638,14.638-14.638h95.528
		c8.085,0,14.638,6.553,14.638,14.638C293.257,341.983,286.704,348.537,278.619,348.537z"/>
	<path d="M144.317,113.835c-8.085,0-14.638-6.553-14.638-14.638V14.638C129.679,6.553,136.232,0,144.317,0
		c8.085,0,14.638,6.553,14.638,14.638v84.559C158.955,107.282,152.402,113.835,144.317,113.835z"/>
	<path d="M314.659,113.835c-8.085,0-14.638-6.553-14.638-14.638V14.638C300.021,6.553,306.574,0,314.659,0
		s14.638,6.553,14.638,14.638v84.559C329.297,107.282,322.743,113.835,314.659,113.835z"/>
</g>
<g>
</g>
<g>
</g>
<g>
</g>
<g>
</g>
<g>
</g>
<g>
</g>
<g>
</g>
<g>
</g>
<g>
</g>
<g>
</g>
<g>
</g>
<g>
</g>
<g>
</g>
<g>
</g>
<g>
</g>
</svg>
